<?xml version="1.0" encoding="UTF-8"?>
<svg id="Layer_2" data-name="Layer 2" xmlns="http://www.w3.org/2000/svg" viewBox="0 0 135.86 110.06">
  <defs>
    <style>
      .cls-1 {
        fill: #19b6a5;
      }

      .cls-2 {
        fill: #f3ca4d;
      }
    </style>
  </defs>
  <g id="Layer_1-2" data-name="Layer 1">
    <g>
      <path class="cls-2" d="M68.85,5.86c.15,1.19,5.98,5.8,7.69,8.08l1.78,2.38,1.15,1.26,6.87,7.52c6.59,7.22,10.09,14.4,11.62,23.98.55,3.45.43,7.37.05,10.86-1.02,9.39-5.3,17.58-11.65,24.59l-7.72,8.53-2.23,2.5.08.69s-.77.48-.96.67l-4.88,4.8-1.28,1.26-1.04,1.3-.91-.02c-3.39,2.11-8.5,4.67-12.76,5.19-14.5,1.74-23.08-3.04-32.23-13.37l-5-5.64-5.38-5.93c-4.57-5.04-8.04-10.24-10.07-16.88-4.65-15.2-.88-30.3,9.48-41.86l5.66-6.31,4.39-4.97c4.25-4.81,7.16-7.75,12.62-10.87,2.23-1.28,6.61-2.84,9.31-3.18,9.59-1.23,15.37-.11,23.21,4.58.54.32,1.47.63,2.21.81ZM58.88,95.06c1.65.49,7.95-6.05,8.69-7.49,1.31-.82,2.45-2.1,3.64-3.42l5.95-6.57c5.59-6.18,8.46-10.61,9.55-19.31.91-7.27-1.27-16.58-6.18-22.13l-5.27-5.96-5.38-6.08c-.6-.68-1.44-1.31-2.26-1.58-.54-2.28-5.73-8.02-8.62-7.48.3-2.23-7.81-3.63-10.66-3.39-10.33.87-13.73,5.7-20.5,13.28l-4.54,5.08c-3.71,4.16-7.57,7.85-9.66,13.18-4.02,10.25-2.71,21.51,3.96,30.13,1.11,1.43,2.47,2.89,3.75,4.31l11.5,12.7c5.6,6.19,10.48,8.4,19.23,7.83.9-.06,2.53-.48,3.27-.81l3.55-2.3Z"/>
      <path class="cls-1" d="M68.32,104.29l1.04-1.3,1.28-1.26,4.88-4.8c.2-.19.93-.66.96-.67l2.53.86c3.64,1.24,7.72,1.61,11.59.91,5.3-.97,9.79-4.51,13.39-8.57l4.42-4.98,6.87-7.53c4.18-4.58,7.38-9.68,8.48-15.78l.58-3.21c.82-4.52-.16-10.31-2.17-14.65l-1.56-3.35c-.48-1.02-1.81-2.75-2.7-3.78l-4.57-5.37-8.04-8.8c-5.67-6.21-7.33-8.46-15.55-10.35-1.04-.24-3.06-.24-4.1-.04l-3.88.71c-.67.12-1.92.54-2.81.83l-2.43.78c-1.71-2.29-7.54-6.9-7.69-8.08C74.02.03,88.68-1.11,95.53,1.09l2.34.76c.45.15,1.62.61,2.1.89l2.54,1.47c5.31,3.07,7.22,5.2,11.29,9.7l4.51,4.98,1.74,2.05c5.34,6.31,4.33,3.11,9.99,12.35l1.63,2.66c.19.3.7,1.25.9,1.74l1.03,2.61c.17.44.46,1.4.59,1.89l.63,2.56c1.38,5.59,1.37,15.14-.05,20.76-1.61,6.4-5.1,12.41-9.72,17.7l-4.36,5-2.38,2.59-4.56,4.97c-2.4,2.61-6.26,6.92-9.16,8.63l-3.91,2.32c-.34.2-1.3.62-1.78.81l-3.07,1.23c-.38.15-1.55.46-1.92.52l-2.78.44c-7.69,1.22-16.72-1.05-22.84-5.44Z"/>
      <path class="cls-1" d="M67.61,22.52l-2.15,2.27-5.37,6.01-3.15,3.72-2.51,3.13c-4.79,5.97-6.35,14.55-5.26,21.99,1.03,7.01,4.3,12.11,8.99,17.32l5.05,5.62,4.37,4.98c-.74,1.45-7.04,7.98-8.69,7.49-.49-.46-1.2-1.18-1.73-1.8l-3.33-3.89-6.1-6.76c-4.59-5.09-7.21-11.22-9.15-17.64-1.58-5.21-1.24-16.8.68-22.07l1.3-3.59c2.06-5.68,5.53-10.31,9.66-14.82l5.04-5.51c1.29-1.41,2.52-2.75,3.75-3.92,2.88-.55,8.08,5.2,8.62,7.48Z"/>
    </g>
  </g>
</svg>